<?xml version="1.0" standalone="no"?>
<!DOCTYPE svg PUBLIC "-//W3C//DTD SVG 20010904//EN"
 "http://www.w3.org/TR/2001/REC-SVG-20010904/DTD/svg10.dtd">
<svg version="1.0" xmlns="http://www.w3.org/2000/svg"
 width="650.000000pt" height="650.000000pt" viewBox="0 0 650.000000 650.000000"
 preserveAspectRatio="xMidYMid meet">
<metadata>
Created by potrace 1.14, written by Peter Selinger 2001-2017
</metadata>
<g transform="translate(0.000000,650.000000) scale(0.100000,-0.100000)"
fill="#000000" stroke="none">
<path d="M2900 6328 c-1 -2 -2 -97 -5 -213 -2 -115 -6 -221 -9 -235 -3 -14 -7
-43 -10 -65 -15 -120 -65 -262 -129 -371 -63 -106 -197 -246 -309 -322 -43
-29 -142 -85 -220 -124 -244 -123 -393 -238 -501 -389 -114 -160 -171 -374
-147 -556 l6 -50 -115 -92 c-257 -203 -516 -357 -761 -454 -70 -28 -259 -84
-300 -89 -14 -2 -28 -7 -31 -12 -9 -12 19 -130 52 -217 63 -164 182 -298 314
-354 39 -16 166 -48 235 -59 19 -3 55 -9 80 -14 25 -5 99 -8 165 -7 116 2 124
3 230 45 201 78 273 92 461 92 89 0 130 -3 208 -18 81 -15 173 -69 209 -122
50 -74 53 -127 12 -267 -82 -283 -347 -680 -710 -1064 -178 -188 -424 -425
-605 -581 -41 -36 -77 -67 -80 -70 -3 -3 -61 -52 -130 -109 -69 -57 -135 -111
-146 -121 -12 -10 -67 -53 -123 -96 -56 -42 -99 -79 -97 -82 6 -5 241 -4 276
2 14 2 51 7 84 11 68 8 86 11 181 31 38 9 80 17 91 20 144 28 429 136 659 249
346 170 644 363 1012 657 69 55 138 111 152 123 14 13 35 32 47 42 243 210
531 491 702 681 l82 92 10 -27 c6 -16 15 -41 21 -58 6 -16 15 -39 19 -50 20
-45 51 -126 91 -235 24 -63 44 -116 45 -118 7 -11 47 25 68 61 52 90 83 257
101 552 14 212 3 826 -20 1185 -2 36 -7 112 -10 170 -3 58 -8 128 -10 155 -2
28 -7 84 -10 125 -3 41 -8 98 -10 125 -2 28 -7 84 -10 125 -3 41 -8 91 -10
110 -3 19 -7 69 -10 110 -3 41 -7 91 -10 110 -2 19 -7 62 -10 95 -7 65 -15 85
-16 39 0 -16 -2 -36 -4 -44 -1 -8 -5 -28 -8 -45 -21 -124 -38 -193 -69 -275
-23 -59 -42 -86 -71 -102 -29 -15 -36 2 -26 62 19 119 17 102 34 280 7 65 7
319 1 370 -3 19 -7 62 -11 94 -3 32 -7 62 -9 65 -2 3 -7 27 -10 52 -23 172
-128 444 -238 614 -95 148 -228 293 -369 403 -102 80 -277 179 -279 160z"/>
<path d="M2473 6103 c12 -19 27 -256 28 -448 2 -185 -13 -301 -47 -368 l-16
-30 24 19 c41 32 119 125 164 194 73 113 126 255 139 370 3 30 8 71 10 91 l4
35 -147 72 c-142 70 -168 80 -159 65z"/>
<path d="M6045 5427 c-214 -134 -539 -264 -780 -313 -285 -58 -482 -76 -800
-74 -110 0 -219 2 -242 3 -24 2 -43 1 -43 -2 1 -4 22 -23 48 -43 119 -94 300
-286 436 -463 43 -55 83 -107 90 -116 8 -9 15 -20 17 -25 2 -5 38 -61 80 -124
239 -363 455 -836 545 -1193 9 -37 18 -66 19 -65 2 2 6 21 9 43 3 22 8 51 11
65 2 14 7 48 10 75 4 39 50 319 69 430 26 147 119 536 151 632 8 23 16 52 19
65 14 78 220 653 281 783 7 17 31 71 53 120 22 50 57 125 77 168 20 43 35 80
33 81 -1 2 -39 -20 -83 -47z"/>
<path d="M4113 4790 c3 -14 13 -68 22 -120 23 -138 24 -143 29 -170 5 -24 10
-59 21 -137 3 -21 7 -51 10 -68 3 -16 7 -48 10 -70 4 -22 8 -51 10 -65 3 -14
7 -50 11 -80 3 -30 7 -66 10 -80 2 -14 6 -53 9 -87 3 -34 8 -71 10 -83 2 -11
7 -56 11 -98 4 -42 8 -90 10 -107 2 -16 6 -66 9 -110 4 -44 8 -93 10 -110 24
-197 25 -976 1 -1102 -2 -10 -7 -47 -11 -83 -19 -179 -82 -432 -140 -565 -14
-30 -25 -57 -25 -59 0 -3 17 -15 38 -27 127 -77 342 -270 475 -429 40 -47 74
-87 77 -90 18 -16 147 -202 205 -295 69 -109 228 -416 274 -528 13 -32 27 -54
31 -50 23 25 119 408 151 598 22 137 23 143 34 245 4 36 8 76 11 90 23 144 23
673 -1 900 -11 104 -17 155 -21 175 -2 11 -6 41 -9 66 -3 25 -8 56 -10 70 -3
13 -10 51 -15 84 -76 437 -264 965 -492 1374 -32 58 -58 106 -58 108 0 2 -8
16 -19 31 -10 15 -49 76 -87 137 -95 151 -341 488 -383 525 -4 3 -31 34 -61
70 -30 36 -77 88 -103 115 -42 43 -48 46 -44 25z"/>
</g>
</svg>
